# xmcd
#
# Track frame offsets: 
#        150
#        3507
#        20845
#        39655
#        58772
#        73905
#        98102
#        120405
#        137165
#        156125
#        174485
#
# Disc length: 2580 seconds
#
# Revision: 0
# Processed by: cddbd v1.5.2PL0 Copyright (c) Steve Scherf et al.
# Submitted via: ExactAudioCopyFreeDBPlugin 1.0
#
DISCID=960a120b
DTITLE=Various Artist - Better Late Than Never
DYEAR=1991
DGENRE=Beach
TTITLE0=General Johnson and The Chairmen of The Board - Prelude
TTITLE1=General Johnson and The Chairmen of The Board - Better Late Than
TTITLE1=Never
TTITLE2=Joe Pope and The Tams - If This Ain't Love, Keep On Foolin' Me
TTITLE3=Cornelius Brothers and Sister Rose - Sooner Or Later
TTITLE4=The Showmen - Shaggin' The Night Away
TTITLE5=General Johnson and The Chairmen of The Board - Patches (New Ver
TTITLE5=sion)
TTITLE6=Cornelius Brothers and Sister Rose - Lets Catch Up On Some Lov
TTITLE6=in
TTITLE7=The Showmen - Can I Have A Second Helpin' Please
TTITLE8=General Johnson and The Chairmen of The Board - Boy Toy
TTITLE9=Joe Pope and The Tams - Down And Dirty Love
TTITLE10=General Johnson and The Chairmen of The Board - Funky Chicken (
TTITLE10=1990's)
EXTD=
EXTT0=
EXTT1=
EXTT2=
EXTT3=
EXTT4=
EXTT5=
EXTT6=
EXTT7=
EXTT8=
EXTT9=
EXTT10=
PLAYORDER=
